# xmcd
# Track frame offsets:
# 150
# 13521
# 27561
# 42830
# 58884
# 73106
# 86055
# 109895
# 120325
# 137069
# 156116
# 171255
# 182802
#
# Disc length: 2578 seconds
# Revision: 0
# Processed by: cddbd v1.5.2PL0 Copyright (c) Steve Scherf et al.
# Submitted via: VisiTrax 2.10.3.257 - For more info visit www.synapsa.com
#
DISCID=b40a100d
DTITLE=Beartracks - Makin Tracks
DYEAR=1900
DGENRE=Bluegrass
TTITLE0=Long Journey Home
TTITLE1=Keep On The Sunny Side
TTITLE2=Mule skinner
TTITLE3=House Of Gold
TTITLE4=Old Time Preacher Man
TTITLE5=Move It On Over
TTITLE6=To Daddy
TTITLE7=Diggy Leggy Lo
TTITLE8=The Leaves Musn't Fall
TTITLE9=Cash On The Barrelhead
TTITLE10=Shackles And Chains
TTITLE11=Old Slew Foot "Beartracks"
TTITLE12=Gypsy Wagon
EXTD=
EXTT0=
EXTT1=
EXTT2=
EXTT3=
EXTT4=
EXTT5=
EXTT6=
EXTT7=
EXTT8=
EXTT9=
EXTT10=
EXTT11=
EXTT12=
PLAYORDER=
